<?xml version="1.0" encoding="utf-8"?>
<!-- Generator: Adobe Illustrator 22.1.0, SVG Export Plug-In . SVG Version: 6.00 Build 0)  -->
<svg version="1.1" id="Ebene_1" xmlns="http://www.w3.org/2000/svg" xmlns:xlink="http://www.w3.org/1999/xlink" x="0px" y="0px"
	 viewBox="0 0 572.4 95.8" style="enable-background:new 0 0 572.4 95.8;" xml:space="preserve">
<style type="text/css">
	.st0{fill:#FFFFFF;}
</style>
<title>Element 1</title>
<g id="Ebene_2_1_">
	<g id="Ebene_1-2">
		<path class="st0" d="M452.1,68.6c0,3.7-3,6.7-6.7,6.7s-6.8-3-6.8-6.8c0.2-3.7,3.3-6.6,7-6.5C449.1,62.1,452,65,452.1,68.6
			L452.1,68.6z"/>
		<path class="st0" d="M69.3,8.4V16c-2.7-1-5.6-1.5-8.4-1.7c-4.6,0-6.9,1.3-6.9,6.3v4.2h13.1v7.3H53.9v42h-9.5v-42h-6.8v-7.3h6.8
			v-4.5c0-7.3,4.2-13.4,15.3-13.4C63,6.9,66.2,7.4,69.3,8.4z"/>
		<path class="st0" d="M90,61.1c0,4.2,0.1,5.5,4.3,5.5c0.7,0,1.5,0,2.2-0.1v7.6c-1.7,0.3-3.5,0.6-5.2,0.6c-6.8,0-10.8-3.9-10.8-12V8
			H90V61.1z"/>
		<path class="st0" d="M149.3,49.5v2.2h-35.5c0.3,10.2,5.3,15.7,14.3,15.7c5.4,0.2,10.4-2.8,12.9-7.6l7.8,4.2
			c-4.3,7.2-11.5,11.4-21.1,11.4c-15.3,0-23.8-11.2-23.8-25.8c0-14.9,8-25.8,23.2-25.8C141.5,23.7,149.3,35,149.3,49.5z M113.9,44.4
			h25.6c-0.6-8.4-5.1-12.9-12.4-12.9C119.4,31.6,114.7,36.3,113.9,44.4z"/>
		<path class="st0" d="M203.3,49.5v2.2h-35.5c0.3,10.2,5.3,15.7,14.3,15.7c5.4,0.2,10.4-2.8,12.9-7.6l7.8,4.2
			c-4.3,7.2-11.5,11.4-21.1,11.4c-15.3,0-23.8-11.2-23.8-25.8c0-14.9,7.9-25.8,23.2-25.8C195.5,23.7,203.3,35,203.3,49.5z
			 M167.9,44.4h25.6c-0.5-8.4-5.1-12.9-12.4-12.9C173.4,31.6,168.7,36.3,167.9,44.4z"/>
		<path class="st0" d="M225.9,24.8h12.8v7.3h-12.8v28.8c0,4.3,1.5,6.4,6.3,6.4c2.6-0.1,5.3-0.5,7.8-1.2v7.6c-3.1,1-6.3,1.5-9.6,1.5
			c-10.3,0-13.9-5.4-13.9-13V32.1h-6.8v-7.3h6.8v-13h9.5v13H225.9z"/>
		<path class="st0" d="M294.8,49.2c0,14.2-7.9,26.1-21.6,26.1c-6.3,0-11.5-2.5-14.4-6.9v21.1h-9.4V24.8h9.4v5.6
			c3.8-5,9.4-6.9,14.5-6.9C286.2,23.7,294.8,34.3,294.8,49.2z M258.5,49.4c0,12.2,5.9,17.9,13.1,17.9c7.9,0,13.5-6.5,13.5-18.1
			c0-10.5-4.6-17.4-13.4-17.4C263.9,31.8,258.5,37.7,258.5,49.4z"/>
		<path class="st0" d="M351.8,49.5c0,15.1-8.8,25.8-23.9,25.8s-24-11-24-25.8c0-14.9,9.1-25.8,24-25.8
			C342.4,23.7,351.8,35,351.8,49.5z M313.6,49.3c0,11.4,5.2,18,14.2,18c8.9,0,14.1-6.6,14.1-18c0-11-5.6-17.5-14.1-17.5
			S313.6,38.3,313.6,49.3z"/>
		<path class="st0" d="M390.1,23.8v9.8c-1.7-0.1-2.3-0.1-3-0.1c-7.9,0-14.1,3.9-14.1,17.6V74h-9.5V24.8h9.5V33
			c3.3-6.3,8.4-9.4,13.5-9.4C387.5,23.7,389.2,23.8,390.1,23.8z"/>
		<path class="st0" d="M410.5,24.8h12.8v7.3h-12.8v28.8c0,4.3,1.5,6.4,6.3,6.4c2.6-0.1,5.3-0.4,7.8-1.2v7.6c-3.1,1-6.3,1.5-9.6,1.5
			c-10.3,0-13.9-5.4-13.9-13V32.1h-6.8v-7.3h6.8v-13h9.5L410.5,24.8L410.5,24.8z"/>
		<path class="st0" d="M476.6,12.5c-0.1,3.4-2.9,6.1-6.3,6.2c-3.4,0-6.2-2.8-6.3-6.2c0.1-3.4,2.9-6.1,6.3-6.2
			C473.7,6.4,476.4,9.1,476.6,12.5z M475,74.1h-9.5V24.8h9.5V74.1z"/>
		<path class="st0" d="M534.8,49.5c0,15.1-8.8,25.8-23.9,25.8s-24-11-24-25.8c0-14.9,9.2-25.8,24-25.8
			C525.4,23.7,534.8,35,534.8,49.5z M496.6,49.3c0,11.4,5.2,18,14.2,18c9,0,14.1-6.6,14.1-18c0-11-5.6-17.5-14.1-17.5
			C502.3,31.8,496.6,38.3,496.6,49.3z"/>
	</g>
</g>
</svg>
