<svg xmlns="http://www.w3.org/2000/svg" viewBox="0 0 572.39 95.75"><defs><style>.cls-1{fill:#4dbeeb;}.cls-2{fill:#000100;}</style></defs><title>Element 1</title><g id="Ebene_2" data-name="Ebene 2"><g id="Ebene_1-2" data-name="Ebene 1"><path class="cls-1" d="M477.18,71.71a7.76,7.76,0,0,1-7.74,7.72,7.87,7.87,0,0,1-7.83-7.83,7.79,7.79,0,0,1,15.57.11Z"/><path class="cls-2" d="M36.45,2.4v8.81a32.66,32.66,0,0,0-9.69-1.85c-5.33,0-8,1.52-8,7.18v4.79H33.84v8.38H18.71V78.13H7.83V29.71H0V21.33H7.83V16.1C7.83,7.73,12.61.66,25.46.66A40.89,40.89,0,0,1,36.45,2.4Z"/><path class="cls-2" d="M60.29,63.11c0,4.79.11,6.31,5,6.31a24.8,24.8,0,0,0,2.5-.11v8.82a26.16,26.16,0,0,1-6,.65C54,78.78,49.41,74.32,49.41,65V2H60.29Z"/><path class="cls-2" d="M128.64,49.73v2.5H87.72c.33,11.75,6.1,18.06,16.54,18.06a16.17,16.17,0,0,0,14.9-8.7l9,4.79c-5,8.27-13.16,13.05-24.26,13.05-17.62,0-27.42-12.94-27.42-29.7C76.51,32.54,85.65,20,103.17,20,119.6,20,128.64,33.08,128.64,49.73ZM87.83,43.86h29.49c-.66-9.69-5.88-14.8-14.26-14.8C94.14,29.06,88.7,34.49,87.83,43.86Z"/><path class="cls-2" d="M190.78,49.73v2.5H149.87C150.2,64,156,70.29,166.41,70.29a16.18,16.18,0,0,0,14.9-8.7l9,4.79c-5,8.27-13.17,13.05-24.27,13.05-17.62,0-27.42-12.94-27.42-29.7,0-17.19,9.14-29.71,26.66-29.71C181.75,20,190.78,33.08,190.78,49.73ZM150,43.86h29.48c-.65-9.69-5.87-14.8-14.25-14.8C156.29,29.06,150.85,34.49,150,43.86Z"/><path class="cls-2" d="M216.82,21.33h14.69v8.38H216.82V62.89c0,4.9,1.74,7.4,7.18,7.4a35.07,35.07,0,0,0,9-1.41v8.81a38.32,38.32,0,0,1-11.1,1.74c-11.86,0-16-6.2-16-15V29.71H198.1V21.33h7.83v-15h10.89Z"/><path class="cls-2" d="M296.15,49.4c0,16.43-9.15,30-24.92,30-7.29,0-13.17-2.93-16.65-7.94V95.75H243.81V21.33h10.77v6.52C259,22.09,265.35,20,271.33,20,286.24,20,296.15,32.21,296.15,49.4Zm-41.89.22c0,14.14,6.85,20.56,15.12,20.56,9.14,0,15.56-7.51,15.56-20.78,0-12.07-5.33-20-15.35-20C260.46,29.38,254.26,36.12,254.26,49.62Z"/><path class="cls-2" d="M361.67,49.73c0,17.41-10.11,29.7-27.52,29.7s-27.64-12.73-27.64-29.7c0-17.19,10.55-29.71,27.64-29.71C350.9,20,361.67,33.08,361.67,49.73Zm-43.85-.22c0,13.06,6,20.67,16.33,20.67s16.2-7.61,16.2-20.67c0-12.73-6.41-20.13-16.2-20.13S317.82,36.78,317.82,49.51Z"/><path class="cls-2" d="M405.77,20.24V31.56c-2-.11-2.61-.11-3.38-.11-9.13,0-16.21,4.46-16.21,20.34V78.13H375.3V21.33h10.88V30.8C390,23.61,395.87,20,401.74,20,402.83,20,404.79,20.13,405.77,20.24Z"/><path class="cls-2" d="M429.29,21.33H444v8.38H429.29V62.89c0,4.9,1.74,7.4,7.17,7.4a35,35,0,0,0,9-1.41v8.81a38.19,38.19,0,0,1-11.09,1.74c-11.86,0-16-6.2-16-15V29.71h-7.84V21.33h7.84v-15h10.89Z"/><path class="cls-1" d="M505.36,7.07a7.3,7.3,0,0,1-7.18,7.08A7.23,7.23,0,0,1,491,7.07,7.22,7.22,0,0,1,498.18,0,7.3,7.3,0,0,1,505.36,7.07Zm-1.74,71.06H492.74V21.33h10.88Z"/><path class="cls-1" d="M572.39,49.73c0,17.41-10.11,29.7-27.52,29.7s-27.64-12.73-27.64-29.7c0-17.19,10.56-29.71,27.64-29.71C561.62,20,572.39,33.08,572.39,49.73Zm-43.84-.22c0,13.06,6,20.67,16.32,20.67s16.21-7.61,16.21-20.67c0-12.73-6.42-20.13-16.21-20.13S528.55,36.78,528.55,49.51Z"/></g></g></svg>